<svg xmlns="http://www.w3.org/2000/svg" xmlns:xlink="http://www.w3.org/1999/xlink" preserveAspectRatio="xMidYMid" width="1402" height="200" viewBox="0 0 1402 200">
  <defs>
    <style>
      .cls-1 {
        fill: #52aa8a;
      }

      .cls-1, .cls-2 {
        fill-rule: evenodd;
      }

      .cls-2 {
        fill: #37a4cc;
      }
    </style>
  </defs>
  <path d="M1284.980,133.598 L1284.980,117.983 L1287.075,117.983 L1287.075,133.598 L1284.980,133.598 ZM1284.980,39.970 L1287.075,39.970 L1287.075,102.368 L1284.980,102.368 L1284.980,39.970 ZM1191.352,38.955 L1254.766,38.955 L1254.766,40.986 L1193.447,40.986 L1193.447,85.737 L1223.599,85.737 L1223.599,87.832 L1193.447,87.832 L1193.447,132.519 L1254.766,132.519 L1254.766,134.550 L1191.352,134.550 L1191.352,38.955 ZM1099.819,87.832 L1099.819,133.598 L1097.725,133.598 L1097.725,38.955 L1145.967,38.955 L1162.217,55.205 L1162.217,71.582 L1145.967,87.832 L1099.819,87.832 ZM1160.122,55.966 L1145.142,40.986 L1099.819,40.986 L1099.819,85.737 L1145.142,85.737 L1160.122,70.756 L1160.122,55.966 ZM1037.358,133.598 L1035.264,133.598 L1035.264,87.006 L1004.224,40.478 L1006.001,39.462 L1036.343,84.975 L1066.621,39.462 L1068.462,40.478 L1037.358,87.006 L1037.358,133.598 ZM972.866,87.832 L912.563,87.832 L912.563,133.598 L910.469,133.598 L910.469,39.970 L912.563,39.970 L912.563,85.737 L972.866,85.737 L972.866,39.970 L974.961,39.970 L974.961,133.598 L972.866,133.598 L972.866,87.832 ZM771.455,101.352 L788.086,117.983 L771.455,134.550 L724.229,134.550 L724.229,132.519 L770.630,132.519 L785.229,117.983 L770.630,103.383 L739.463,103.383 L722.832,86.752 L739.463,70.122 L786.626,70.122 L786.626,72.216 L740.225,72.216 L725.688,86.752 L740.225,101.352 L771.455,101.352 ZM676.494,70.629 L692.109,39.462 L693.887,40.478 L678.271,71.709 L676.494,70.629 ZM645.137,87.133 L630.156,72.216 L615.366,72.216 L584.834,102.749 L584.834,133.598 L582.739,133.598 L582.739,71.201 L584.834,71.201 L584.834,99.892 L614.604,70.122 L630.981,70.122 L647.231,86.372 L647.231,133.598 L645.137,133.598 L645.137,87.133 ZM536.909,119.379 L521.738,134.550 L505.361,134.550 L489.111,118.364 L489.111,86.372 L505.361,70.122 L521.738,70.122 L537.988,86.372 L537.988,117.602 L553.286,132.773 L551.763,134.296 L536.909,119.379 ZM535.894,87.133 L520.977,72.216 L506.123,72.216 L491.206,87.133 L491.206,117.602 L506.123,132.519 L520.977,132.519 L535.894,117.602 L535.894,87.133 ZM457.881,87.133 L443.281,72.597 L428.745,87.133 L428.745,102.368 L426.650,102.368 L426.650,87.133 L412.114,72.597 L397.578,87.133 L397.578,133.598 L395.483,133.598 L395.483,71.201 L397.578,71.201 L397.578,84.277 L412.114,69.741 L427.729,85.356 L443.281,69.741 L459.976,86.372 L459.976,133.598 L457.881,133.598 L457.881,87.133 ZM224.477,134.550 L208.228,118.364 L208.228,86.372 L224.477,70.122 L256.470,70.122 L272.720,86.372 L272.720,118.364 L256.470,134.550 L224.477,134.550 ZM270.625,87.133 L255.644,72.216 L225.239,72.216 L210.322,87.133 L210.322,117.602 L225.239,132.519 L255.644,132.519 L270.625,117.602 L270.625,87.133 ZM116.694,43.334 L116.694,133.598 L114.600,133.598 L114.600,40.034 L116.885,39.970 L176.997,130.170 L176.997,39.970 L179.092,39.970 L179.092,133.598 L176.870,133.598 L116.694,43.334 Z" class="cls-1"/>
  <g>
    <path d="M-38.000,100.000 L90.000,100.000 L90.000,127.000 L-38.000,100.000 Z" class="cls-2"/>
    <path d="M90.000,100.000 L113.000,150.000 L90.000,150.000 L90.000,100.000 Z" class="cls-2"/>
    <path d="M351.000,150.000 L90.000,173.000 L90.000,150.000 L351.000,150.000 Z" class="cls-2"/>
    <path d="M301.000,150.000 L351.000,127.000 L351.000,150.000 L301.000,150.000 Z" class="cls-2"/>
    <path d="M351.000,24.000 L374.000,150.000 L351.000,150.000 L351.000,24.000 Z" class="cls-2"/>
    <path d="M359.000,74.000 L351.000,24.000 L652.000,-20.000 C651.743,-20.149 376.375,41.413 375.678,42.145 C372.533,45.450 358.398,74.623 359.000,74.000 Z" class="cls-2"/>
  </g>
</svg>
